<?xml version="1.0" standalone="no"?>
<svg viewBox="0 0 200 200" xmlns="http://www.w3.org/2000/svg">
  <path fill="#F1C21B" d="M36.8,-56.8C49.5,-49.2,62.6,-41.9,71.9,-30.3C81.1,-18.7,86.5,-2.7,85.2,12.8C83.8,28.4,75.9,43.6,64.5,54.7C53.1,65.8,38.2,72.7,22.6,77.7C6.9,82.7,-9.6,85.7,-18.5,76.8C-27.4,67.9,-28.8,47,-34.8,33.7C-40.9,20.4,-51.5,14.7,-58.3,4.9C-65.1,-4.8,-67.9,-18.6,-61.1,-25.5C-54.2,-32.5,-37.6,-32.6,-25.8,-40.6C-14,-48.6,-7,-64.6,2.5,-68.6C12.1,-72.5,24.2,-64.5,36.8,-56.8Z" transform="translate(100 100)" />
</svg>
