<?xml version="1.0" standalone="no"?>
<svg viewBox="0 0 200 200" xmlns="http://www.w3.org/2000/svg">
  <path fill="#F1C21B" d="M32.9,-49.1C45.3,-43.2,59.8,-38.6,63.5,-29.4C67.2,-20.1,60,-6.3,56.8,7.4C53.6,21.1,54.5,34.5,48.4,42.5C42.3,50.4,29.3,52.8,16.9,55.5C4.5,58.3,-7.2,61.5,-17.9,59.1C-28.5,56.8,-37.9,48.9,-45.2,39.7C-52.5,30.4,-57.7,19.7,-57.7,9.2C-57.8,-1.3,-52.8,-11.5,-47.1,-20.6C-41.5,-29.6,-35.3,-37.4,-27.3,-45.3C-19.3,-53.3,-9.7,-61.6,0.3,-62C10.2,-62.4,20.5,-55.1,32.9,-49.1Z" transform="translate(100 100)" />
</svg>
