<!--?xml version="1.0" standalone="no"?-->
              <svg id="sw-js-blob-svg" width="300" height="200" viewBox="0 0 50 50" xmlns="http://www.w3.org/2000/svg" version="1.1">
                    <defs> 
                        <linearGradient id="sw-gradient" x1="0" x2="1" y1="1" y2="0">
                            <stop id="stop1" stop-color="rgba(248, 117, 55, 1)" offset="0%"></stop>
                            <stop id="stop2" stop-color="rgba(251, 168, 31, 1)" offset="100%"></stop>
                        </linearGradient>
                    </defs>
                <path fill="url(#sw-gradient)" d="M11.9,-20.5C17.1,-15.2,24.1,-14.7,25.9,-11.6C27.8,-8.5,24.5,-2.7,23.4,3.2C22.3,9.1,23.4,15.2,21.3,19.4C19.1,23.7,13.8,26.2,7.8,29C1.9,31.8,-4.7,34.9,-9.1,32.8C-13.6,30.7,-15.9,23.3,-22.3,18.1C-28.7,12.9,-39,10,-41,5.1C-42.9,0.2,-36.4,-6.7,-31.5,-13C-26.5,-19.3,-23.1,-25,-18.1,-30.4C-13.1,-35.8,-6.6,-41,-1.6,-38.5C3.3,-36,6.7,-25.8,11.9,-20.5Z" width="100%" height="100%" transform="translate(50 50)" stroke-width="0" style="transition: all 0.3s ease 0s;"></path>
              </svg>