<svg width="1920" height="1080" viewBox="0 0 1920 1080" xmlns="http://www.w3.org/2000/svg"><rect width="1920" height="1080" fill="#3d1053"/><path d="M1714,557.9999999999999C1723.2963997049892,662.2400697497757,1629.0056927830965,741.5659010385767,1549.4661504132982,857.7812989088043C1469.9266080435,973.9966967790318,1364.800895146962,1188.8738725026049,1236.7627457812105,1255.292387221365C1108.724596415459,1321.7109019401253,880.4898580252474,1298.5346285550336,781.2372542187895,1256.2923872213653C681.9846504123317,1214.050145887697,733.1199986455953,1118.221003756249,641.2471229424636,1001.8389392193549C549.374247239332,885.4568746824607,277.5101631217967,698.612979739785,230,558.0000000000001C182.48983687820325,417.3870202602152,269.146601841885,249.8998403823303,356.1861442116832,158.16106078064524C443.2256865814814,66.42228117896018,629.276107537479,58.142897056891435,752.2372542187893,7.567322389889682C875.1984009000996,-43.00825227711207,970.3779413054494,-182.75464689140858,1093.9530242995452,-145.2923872213653C1217.528107293641,-107.830127551322,1390.346589566621,115.12548253992186,1493.6877521833635,232.3408804101494C1597.028914800106,349.55627828037694,1704.7036002950108,453.75993025022404,1714,557.9999999999999C1723.2963997049892,662.2400697497757,1629.0056927830965,741.5659010385767,1549.4661504132982,857.7812989088043" fill="#e6b60a"/></svg>